# xmcd
#
# Track frame offsets:
#	150
#	14379
#	29939
#	42179
#	58420
#	70638
#	83309
#	99406
#	110711
#	129002
#
# Disc length: 1946 seconds
#
# Revision: 1
# Processed by: cddbd v1.5.1PL0 Copyright (c) Steve Scherf et al.
# Submitted via: audiograbber 1.83.01
#
DISCID=7d07980a
DTITLE=Katherine KAY - One sided love
DYEAR=1990
DGENRE=Country
TTITLE0=New tin roof
TTITLE1=Standing in the rain
TTITLE2=State of misery
TTITLE3=Stay gone
TTITLE4=Shot in the dark
TTITLE5=Drinking your memory away
TTITLE6=Unfair onesided love
TTITLE7=One kiss closer
TTITLE8=It's not that cold in Colorado
TTITLE9=You're free
EXTD=
EXTT0=
EXTT1=
EXTT2=
EXTT3=
EXTT4=
EXTT5=
EXTT6=
EXTT7=
EXTT8=
EXTT9=
PLAYORDER=
